<?xml version="1.0" encoding="UTF-8"?>
<!-- Generator: Adobe Illustrator 28.3.0, SVG Export Plug-In . SVG Version: 6.00 Build 0)  -->
<svg xmlns="http://www.w3.org/2000/svg" xmlns:xlink="http://www.w3.org/1999/xlink" version="1.1" id="Calque_2_00000134951671338859640050000007413464814760955550_" x="0px" y="0px" viewBox="0 0 165.3 74.9" style="enable-background:new 0 0 165.3 74.9;" xml:space="preserve">
<style type="text/css">
	.st0{clip-path:url(#SVGID_00000015324741688837708540000013589126827238995882_);}
	.st1{clip-path:url(#SVGID_00000118362318748714385380000016059228907132439953_);}
	.st2{fill:#1E4562;}
	.st3{fill:none;stroke:#1D1D1B;stroke-width:5.000000e-02;stroke-miterlimit:10;}
	.st4{fill:#EDEDE6;}
	.st5{fill:#1E4562;stroke:#1D1D1B;stroke-width:5.000000e-02;}
	.st6{fill:#1D4662;}
	.st7{fill:none;stroke:#1D1D1B;stroke-width:5.000000e-02;}
	.st8{fill:#CADEE8;}
	.st9{fill:#B0CAC9;}
	.st10{fill:#DEF0EF;}
	.st11{fill:#CEDEDE;}
	.st12{fill:#DCDBCC;}
	.st13{fill:#1E4562;stroke:#1D1D1B;stroke-width:5.000000e-02;stroke-miterlimit:10;}
	.st14{fill:#27241A;}
	.st15{fill:#F3B430;}
	.st16{fill:#EC631C;}
	.st17{fill:none;stroke:#DCDBCC;stroke-width:5.000000e-02;}
	.st18{fill:none;stroke:#FFFFFF;stroke-width:5.000000e-02;stroke-linecap:round;}
	.st19{fill:none;stroke:#DCDBCC;stroke-width:0.33;stroke-linecap:round;stroke-miterlimit:10;}
	.st20{fill:#B3B2B6;}
	.st21{fill:#575457;}
	.st22{fill:#EDECDC;}
	.st23{fill:#B2B3A7;}
	.st24{fill:#FFFFFF;}
	.st25{clip-path:url(#SVGID_00000054248533735904368470000008162209830003325629_);}
	.st26{clip-path:url(#SVGID_00000165929725424688760280000005423683440860098454_);}
</style>
<g id="Calque_1-2">
	<g id="Illustration_2">
		<g>
			<defs>
				<rect id="SVGID_1_" y="0" width="165.3" height="74.9"></rect>
			</defs>
			<clipPath id="SVGID_00000119118026559853096250000016238439587308874922_">
				<use xlink:href="#SVGID_1_" style="overflow:visible;"></use>
			</clipPath>
			<g style="clip-path:url(#SVGID_00000119118026559853096250000016238439587308874922_);">
				<g>
					<defs>
						<rect id="SVGID_00000078724484386590118770000014685710376982967963_" y="0" width="165.3" height="74.9"></rect>
					</defs>
					<clipPath id="SVGID_00000035510640476344755470000010150586041056651921_">
						<use xlink:href="#SVGID_00000078724484386590118770000014685710376982967963_" style="overflow:visible;"></use>
					</clipPath>
					<g style="clip-path:url(#SVGID_00000035510640476344755470000010150586041056651921_);">
						<path class="st2" d="M153.4,27.9H45.5v29.5H55l1.5-2.7l0.3-0.5c0.6-1.1,1.7-1.8,2.9-1.8h13.5c1.1,0,2.2,0.6,2.8,1.6l0.4,0.7        l0.4,4.8h76.1l0.1-2.1c0,0,0.7-1.1,2.2-1.3C155.2,56,156.3,40.7,153.4,27.9"></path>
						<path class="st3" d="M153.4,27.9H45.5v29.5H55l1.5-2.7l0.3-0.5c0.6-1.1,1.7-1.8,2.9-1.8h13.5c1.1,0,2.2,0.6,2.8,1.6l0.4,0.7        l0.4,4.8h76.1l0.1-2.1c0,0,0.7-1.1,2.2-1.3C155.2,56,156.3,40.7,153.4,27.9L153.4,27.9z"></path>
						<path class="st4" d="M146.4,12.6c0.3,0,0.6-0.3,0.6-0.7v-0.2c0-0.4-0.3-0.7-0.6-0.7H47.4c-0.3,0-0.6,0.3-0.6,0.7V12        c0,0.4,0.3,0.7,0.6,0.7H146.4z"></path>
						<path class="st5" d="M146.4,12.6c0.3,0,0.6-0.3,0.6-0.7v-0.2c0-0.4-0.3-0.7-0.6-0.7H47.4c-0.3,0-0.6,0.3-0.6,0.7V12        c0,0.4,0.3,0.7,0.6,0.7H146.4z"></path>
						<path class="st6" d="M146.7,12.6H47.9c0,0-2,7.1-2.4,12.6h107.3C152.9,25.2,149.9,17.6,146.7,12.6"></path>
						<path class="st3" d="M146.7,12.6H47.9c0,0-2,7.1-2.4,12.6h107.3C152.9,25.2,149.9,17.6,146.7,12.6L146.7,12.6z"></path>
						<path class="st4" d="M126.8,32.2c0-0.9-1.2-1.6-2.7-1.6s-2.7,0.7-2.7,1.6s1.2,1.6,2.7,1.6S126.8,33.1,126.8,32.2"></path>
						<ellipse class="st7" cx="124" cy="32.2" rx="2.7" ry="1.6"></ellipse>
						<path class="st4" d="M121.7,32.6c0.5,0.1,1.1,0.1,1.8,0.1c1.5,0,2.7-0.2,2.7-0.4s-1.2-0.4-2.7-0.4c-0.7,0-1.3,0-1.8,0.1        c-0.2-0.2-0.5-0.3-0.9-0.3c-0.6,0-1.1,0.3-1.1,0.6c0,0.3,0.5,0.6,1.1,0.6C121.1,32.8,121.5,32.7,121.7,32.6"></path>
						<path class="st7" d="M121.7,32.6c0.5,0.1,1.1,0.1,1.8,0.1c1.5,0,2.7-0.2,2.7-0.4s-1.2-0.4-2.7-0.4c-0.7,0-1.3,0-1.8,0.1        c-0.2-0.2-0.5-0.3-0.9-0.3c-0.6,0-1.1,0.3-1.1,0.6c0,0.3,0.5,0.6,1.1,0.6C121.1,32.8,121.5,32.7,121.7,32.6z"></path>
						<path class="st4" d="M113.7,32.2c0-0.9-1.2-1.6-2.7-1.6s-2.7,0.7-2.7,1.6s1.2,1.6,2.7,1.6S113.7,33.1,113.7,32.2"></path>
						<ellipse class="st7" cx="110.9" cy="32.2" rx="2.7" ry="1.6"></ellipse>
						<path class="st4" d="M108.6,32.6c0.5,0.1,1.1,0.1,1.8,0.1c1.5,0,2.7-0.2,2.7-0.4s-1.2-0.4-2.7-0.4c-0.7,0-1.3,0-1.8,0.1        c-0.2-0.2-0.5-0.3-0.9-0.3c-0.6,0-1.1,0.3-1.1,0.6c0,0.3,0.5,0.6,1.1,0.6C108.1,32.8,108.4,32.7,108.6,32.6"></path>
						<path class="st7" d="M108.6,32.6c0.5,0.1,1.1,0.1,1.8,0.1c1.5,0,2.7-0.2,2.7-0.4s-1.2-0.4-2.7-0.4c-0.7,0-1.3,0-1.8,0.1        c-0.2-0.2-0.5-0.3-0.9-0.3c-0.6,0-1.1,0.3-1.1,0.6c0,0.3,0.5,0.6,1.1,0.6C108.1,32.8,108.4,32.7,108.6,32.6z"></path>
						<path class="st8" d="M142.4,23.7c0.5,0,0.9-0.7,0.6-1.2l-4.6-8.7c-0.1-0.2-0.4-0.4-0.6-0.4h-17.4c-0.4,0-0.7,0.4-0.7,0.8v8.7        c0,0.5,0.3,0.8,0.7,0.8H142.4z"></path>
						<path class="st3" d="M142.4,23.7c0.5,0,0.9-0.7,0.6-1.2l-4.6-8.7c-0.1-0.2-0.4-0.4-0.6-0.4h-17.4c-0.4,0-0.7,0.4-0.7,0.8v8.7        c0,0.5,0.3,0.8,0.7,0.8H142.4z"></path>
						<path class="st8" d="M149.1,23.7h2.8c0.3,0,0.2-0.7,0.2-0.7c-0.3-1.2-1.8-6-4.6-9.5c0,0-0.1-0.1-0.3-0.1h-4.5        c-0.2,0-0.3,0.2-0.2,0.4l5.9,9.5C148.3,23.2,148.5,23.7,149.1,23.7"></path>
						<path class="st3" d="M149.1,23.7h2.8c0.3,0,0.2-0.7,0.2-0.7c-0.3-1.2-1.8-6-4.6-9.5c0,0-0.1-0.1-0.3-0.1h-4.5        c-0.2,0-0.3,0.2-0.2,0.4l5.9,9.5C148.3,23.2,148.5,23.7,149.1,23.7L149.1,23.7z"></path>
						<rect x="130.1" y="13.4" class="st9" width="0.3" height="10.1"></rect>
						<polygon class="st10" points="130.1,14.5 123.6,23.6 128.1,23.6 130.1,20.7       "></polygon>
						<polygon class="st10" points="130.9,13.4 130.4,14.1 130.4,20.3 135.3,13.4       "></polygon>
						<polygon class="st11" points="130.1,14.5 130.1,20.7 130.4,20.3 130.4,14.1       "></polygon>
						<path class="st4" d="M145.3,11.1c0,0-2-7-13.9-7.2h-15.7c0,0.2-0.2,0.4-0.4,0.4s-0.4-0.2-0.4-0.4H92c0,0.2-0.2,0.4-0.4,0.4        s-0.4-0.2-0.4-0.4H70.8c0,0.2-0.2,0.4-0.4,0.4S70,4.1,70,3.9h-8.4c-3.2,0.1-5.7,0.6-7.6,1.4c0,0,0,0.1,0,0.1        c0,0.2-0.2,0.4-0.4,0.4c-0.2,0-0.3-0.1-0.4-0.2c-4.7,2.2-5.7,5.5-5.7,5.5L145.3,11.1L145.3,11.1z"></path>
						<path class="st7" d="M145.3,11.1c0,0-2-7-13.9-7.2h-15.7c0,0.2-0.2,0.4-0.4,0.4s-0.4-0.2-0.4-0.4H92c0,0.2-0.2,0.4-0.4,0.4        s-0.4-0.2-0.4-0.4H70.8c0,0.2-0.2,0.4-0.4,0.4S70,4.1,70,3.9h-8.4c-3.2,0.1-5.7,0.6-7.6,1.4c0,0,0,0.1,0,0.1        c0,0.2-0.2,0.4-0.4,0.4c-0.2,0-0.3-0.1-0.4-0.2c-4.7,2.2-5.7,5.5-5.7,5.5L145.3,11.1L145.3,11.1z"></path>
						<path class="st12" d="M101.5,5.7c2.7,0,5.3,0,8,0.1c2.6,0,5.2,0,7.7,0.1c2.5,0,4.9,0,7.2,0c1.2,0,2.3,0,3.3,0        c0.5,0,1.1,0,1.6,0h0.1c0.5,0,0.9,0,1.4,0c2,0.1,3.8,0.3,5.4,0.7c0.8,0.2,1.5,0.4,2.2,0.7c0.6,0.3,1.2,0.5,1.8,0.8        c1,0.6,1.7,1.2,2.1,1.7c0.1,0.1,0.2,0.2,0.3,0.3c0.1,0.1,0.1,0.2,0.2,0.3c0.1,0.1,0.1,0.2,0.1,0.2l0.1-0.1        c0,0-0.1-0.1-0.1-0.2c-0.1-0.1-0.1-0.2-0.2-0.3c-0.1-0.1-0.2-0.2-0.3-0.4c-0.4-0.5-1.1-1.2-2.1-1.9c-1-0.7-2.4-1.3-3.9-1.7        c-1.6-0.4-3.4-0.8-5.4-0.9c-0.5,0-1-0.1-1.5-0.1c-0.5,0-1.1,0-1.6,0c-1.1,0-2.2,0-3.3,0c-2.3,0-4.7,0-7.2,0        c-2.5,0-5.1,0-7.7,0.1c-2.6,0-5.3,0-8,0.1C90.8,5,80.1,5.1,72.1,5.2c-8,0.1-13.3,0.1-13.3,0.1v0.1c0,0,5.3,0.1,13.3,0.1        C80.1,5.5,90.8,5.6,101.5,5.7"></path>
						<path class="st8" d="M111.7,23.7c0.6,0,1-0.5,1-0.9v-8.5c0-0.5-0.4-0.9-1-0.9H95.3c-0.6,0-1.1,0.5-1.1,0.9v8.5        c0,0.5,0.5,0.9,1.1,0.9L111.7,23.7L111.7,23.7z"></path>
						<path class="st3" d="M111.7,23.7c0.6,0,1-0.5,1-0.9v-8.5c0-0.5-0.4-0.9-1-0.9H95.3c-0.6,0-1.1,0.5-1.1,0.9v8.5        c0,0.5,0.5,0.9,1.1,0.9L111.7,23.7L111.7,23.7z"></path>
						<path class="st8" d="M87.8,23.7c0.8,0,1.1-0.5,1.1-1.2v-8.3c0-0.5-0.5-0.9-1.1-0.9H51.6c-0.6,0-1.2,0.4-1.2,0.9v8.5        c0,0.6,0.4,0.9,1.2,0.9H87.8z"></path>
						<path class="st3" d="M87.8,23.7c0.8,0,1.1-0.5,1.1-1.2v-8.3c0-0.5-0.5-0.9-1.1-0.9H51.6c-0.6,0-1.2,0.4-1.2,0.9v8.5        c0,0.6,0.4,0.9,1.2,0.9H87.8z"></path>
						<rect x="70.3" y="13.4" class="st9" width="0.3" height="10.1"></rect>
						<polygon class="st10" points="70.3,14.5 63.7,23.6 68.2,23.6 70.3,20.7       "></polygon>
						<polygon class="st10" points="71.1,13.4 70.6,14.1 70.6,20.3 75.4,13.4       "></polygon>
						<polygon class="st11" points="70.3,14.5 70.3,20.7 70.6,20.3 70.6,14.1       "></polygon>
						<path class="st6" d="M153,28.7c0.9,0,1.6-0.8,1.6-1.8v-0.1c0-1-0.7-1.8-1.6-1.8H45.1c-0.9,0-1.6,0.8-1.6,1.8V27        c0,1,0.7,1.8,1.6,1.8H153z"></path>
						<path class="st13" d="M153,28.7c0.9,0,1.6-0.8,1.6-1.8v-0.1c0-1-0.7-1.8-1.6-1.8H45.1c-0.9,0-1.6,0.8-1.6,1.8V27        c0,1,0.7,1.8,1.6,1.8H153z"></path>
						<path class="st7" d="M116.8,12.7v31.4c0,1.1,0.9,2,2.1,2h22.4c0.6,0,7.4,0,7.4,0c1.1,0,1.7-0.8,1.7-1.9        c0.1-4.7-0.3-7.2-2.1-15.5l-0.8-3.7l-7.8-12.5"></path>
						<polygon class="st10" points="104.9,13.4 97.7,23.6 102.1,23.6 109.2,13.4       "></polygon>
						<path class="st14" d="M156.5,39.9c-0.3-0.7-0.8-1.3-2.1-1.2c-1.2,0-2.2,1.2-2.3,3.2v2.9c0,1.2-1.1,2.3-2.5,2.3h-29.3        c0,0-3.6,0-3.6,3.3v4.7H78.3v-4.7c0,0,0-3.3-3.6-3.3H54.8c0,0-3.6,0-3.6,3.3v6.3h27.1V58l37.3-0.1l1.3-0.1l35.5,0l-0.1-7.2        l0.1,5.3c0,0-0.2,1.7,2.4,2.1c0.5,0.1,1.1-0.2,1.1-0.6l1.1-0.1C157.3,54.8,157.8,46.4,156.5,39.9"></path>
						<path class="st3" d="M156.5,39.9c-0.3-0.7-0.8-1.3-2.1-1.2c-1.2,0-2.2,1.2-2.3,3.2v2.9c0,1.2-1.1,2.3-2.5,2.3h-29.3        c0,0-3.6,0-3.6,3.3v4.7H78.3v-4.7c0,0,0-3.3-3.6-3.3H54.8c0,0-3.6,0-3.6,3.3v6.3h27.1V58l37.3-0.1l1.3-0.1l35.5,0l-0.1-7.2        l0.1,5.3c0,0-0.2,1.7,2.4,2.1c0.5,0.1,1.1-0.2,1.1-0.6l1.1-0.1C157.3,54.8,157.8,46.4,156.5,39.9L156.5,39.9z"></path>
						<path class="st6" d="M156.4,40.6c-0.1-0.4-0.6-0.9-1.2-0.9c-1,0-2.2,0.9-2,3v1.5l0,0.9c0,0-0.3,3.7-3.1,3.7h-28.4        c0,0-3.5,0-3.5,3.3v4.4l-39.8,0v-4.4c0,0,0-3.3-3.6-3.3h-20c0,0-3.6,0-3.6,3.3v6.3h104l2.5-1C157.8,55,157.6,46.6,156.4,40.6"></path>
						<path class="st3" d="M156.4,40.6c-0.1-0.4-0.6-0.9-1.2-0.9c-1,0-2.2,0.9-2,3v1.5l0,0.9c0,0-0.3,3.7-3.1,3.7h-28.4        c0,0-3.5,0-3.5,3.3v4.4l-39.8,0v-4.4c0,0,0-3.3-3.6-3.3h-20c0,0-3.6,0-3.6,3.3v6.3h104l2.5-1C157.8,55,157.6,46.6,156.4,40.6        L156.4,40.6z"></path>
						<path class="st4" d="M159.4,61.1c0,0,2.4-0.3,2-2.6c0,0-0.2-2-2.9-2c0,0-1.4,0.1-2.2,1.3h-3.7c0,0-0.4,3,2.8,3.3L159.4,61.1        L159.4,61.1z"></path>
						<path class="st7" d="M159.4,61.1c0,0,2.4-0.3,2-2.6c0,0-0.2-2-2.9-2c0,0-1.4,0.1-2.2,1.3h-3.7c0,0-0.4,3,2.8,3.3L159.4,61.1        L159.4,61.1z"></path>
						<path class="st6" d="M157.7,43.1c0,1.8-0.8,3.2-1.8,3.2s-1.8-1.4-1.8-3.2s0.8-3.2,1.8-3.2S157.7,41.3,157.7,43.1"></path>
						<ellipse class="st3" cx="155.9" cy="43.1" rx="1.8" ry="3.2"></ellipse>
						<path class="st15" d="M157.7,43.1c0,1.5-0.5,2.7-1.2,2.7s-1.2-1.2-1.2-2.7s0.5-2.7,1.2-2.7S157.7,41.6,157.7,43.1"></path>
						<path class="st3" d="M157.7,43.1c0,1.5-0.5,2.7-1.2,2.7s-1.2-1.2-1.2-2.7s0.5-2.7,1.2-2.7S157.7,41.6,157.7,43.1z"></path>
						<path class="st6" d="M157.6,53.4c0,0.1-0.2,0.2-0.4,0.2h-2.8c-0.2,0-0.4-0.1-0.4-0.2v-2.6c0-0.1,0.2-0.2,0.4-0.2h2.8        c0.2,0,0.4,0.1,0.4,0.2V53.4z"></path>
						<path class="st3" d="M157.6,53.4c0,0.1-0.2,0.2-0.4,0.2h-2.8c-0.2,0-0.4-0.1-0.4-0.2v-2.6c0-0.1,0.2-0.2,0.4-0.2h2.8        c0.2,0,0.4,0.1,0.4,0.2V53.4z"></path>
						<path class="st16" d="M157.6,53.4c0,0.1-0.1,0.1-0.3,0.1h-1.9c-0.2,0-0.3-0.1-0.3-0.1v-2.2c0-0.1,0.1-0.1,0.3-0.1h1.9        c0.2,0,0.3,0.1,0.3,0.1V53.4z"></path>
						<path class="st7" d="M157.6,53.4c0,0.1-0.1,0.1-0.3,0.1h-1.9c-0.2,0-0.3-0.1-0.3-0.1v-2.2c0-0.1,0.1-0.1,0.3-0.1h1.9        c0.2,0,0.3,0.1,0.3,0.1V53.4z"></path>
						<path class="st4" d="M70,4.1V10c0,0.2,0.2,0.4,0.4,0.4s0.4-0.2,0.4-0.4V4.1c-0.1,0.1-0.2,0.2-0.4,0.2        C70.3,4.4,70.1,4.2,70,4.1"></path>
						<path class="st17" d="M70,4.1V10c0,0.2,0.2,0.4,0.4,0.4s0.4-0.2,0.4-0.4V4.1c-0.1,0.1-0.2,0.2-0.4,0.2        C70.3,4.4,70.1,4.2,70,4.1L70,4.1z"></path>
						<path class="st4" d="M91.2,4.1V10c0,0.2,0.2,0.4,0.4,0.4S92,10.2,92,10V4.1c-0.1,0.2-0.2,0.2-0.4,0.2        C91.4,4.4,91.3,4.3,91.2,4.1"></path>
						<path class="st17" d="M91.2,4.1V10c0,0.2,0.2,0.4,0.4,0.4S92,10.2,92,10V4.1c-0.1,0.2-0.2,0.2-0.4,0.2        C91.4,4.4,91.3,4.3,91.2,4.1z"></path>
						<path class="st4" d="M114.8,4.1V10c0,0.2,0.2,0.4,0.4,0.4s0.4-0.2,0.4-0.4V4.1c-0.1,0.1-0.2,0.2-0.4,0.2S114.9,4.2,114.8,4.1"></path>
						<path class="st17" d="M114.8,4.1V10c0,0.2,0.2,0.4,0.4,0.4s0.4-0.2,0.4-0.4V4.1c-0.1,0.1-0.2,0.2-0.4,0.2S114.9,4.2,114.8,4.1        z"></path>
						<path class="st4" d="M53.3,5.7L53.3,5.7l0,4.4c0,0.1,0.2,0.3,0.4,0.3s0.4-0.1,0.4-0.3V5.7H54c-0.1,0.1-0.2,0.2-0.4,0.2        S53.4,5.8,53.3,5.7"></path>
						<path class="st17" d="M53.3,5.7L53.3,5.7l0,4.4c0,0.1,0.2,0.3,0.4,0.3s0.4-0.1,0.4-0.3V5.7H54c-0.1,0.1-0.2,0.2-0.4,0.2        S53.4,5.8,53.3,5.7L53.3,5.7z"></path>
						<path class="st5" d="M145.3,11.1c0,0-2-7-13.9-7.2h-15.7c0,0.2-0.2,0.4-0.4,0.4s-0.4-0.2-0.4-0.4H92c0,0.2-0.2,0.4-0.4,0.4        s-0.4-0.2-0.4-0.4H70.8c0,0.2-0.2,0.4-0.4,0.4S70,4.1,70,3.9h-8.4c-3.2,0.1-5.7,0.6-7.6,1.4c0,0,0,0.1,0,0.1        c0,0.2-0.2,0.4-0.4,0.4c-0.2,0-0.3-0.1-0.4-0.2c-4.7,2.2-5.7,5.5-5.7,5.5L145.3,11.1L145.3,11.1z"></path>
						<line class="st18" x1="91.5" y1="4.7" x2="91.5" y2="10"></line>
						<line class="st18" x1="115.1" y1="4.7" x2="115.1" y2="10"></line>
						<line class="st18" x1="70.3" y1="4.7" x2="70.3" y2="10"></line>
						<line class="st18" x1="53.5" y1="6.2" x2="53.5" y2="10"></line>
						<path class="st4" d="M53.2,59.8c0.4,0,0.9-0.1,0.9-0.7V57c0-0.7-0.3-1.1-1-1.1H42.8c-0.5,0-0.8,0.3-0.8,0.7v2.5        c0,0.4,0.4,0.7,0.8,0.7L53.2,59.8L53.2,59.8z"></path>
						<path class="st7" d="M53.2,59.8c0.4,0,0.9-0.1,0.9-0.7V57c0-0.7-0.3-1.1-1-1.1H42.8c-0.5,0-0.8,0.3-0.8,0.7v2.5        c0,0.4,0.4,0.7,0.8,0.7L53.2,59.8L53.2,59.8z"></path>
						<path class="st4" d="M50.8,59.8h-2.7l-1.4,0.8c-0.5,0.3-1,0.4-1.5,0.4h-3.8v1.2h4.2c0.6,0,1.2-0.2,1.8-0.5        C47.4,61.8,50.8,59.8,50.8,59.8z"></path>
						<path class="st7" d="M50.8,59.8h-2.7l-1.4,0.8c-0.5,0.3-1,0.4-1.5,0.4h-3.8v1.2h4.2c0.6,0,1.2-0.2,1.8-0.5        C47.4,61.8,50.8,59.8,50.8,59.8z"></path>
						<line class="st19" x1="43.3" y1="58.5" x2="52.1" y2="58.5"></line>
						<path class="st20" d="M15.4,56.6c0,0,0,0.1,0,0.3c0,0.2,0,0.5-0.1,0.9S15,58.7,14.7,59c-0.1,0.2-0.3,0.3-0.6,0.5        c-0.2,0.1-0.4,0.2-0.6,0.3c-0.1,0-0.2,0-0.4,0.1c-0.1,0-0.2,0-0.3,0c-0.1,0-0.2,0-0.3,0c-0.1,0-0.2-0.1-0.3-0.1        c-0.1,0-0.2-0.1-0.3-0.1c-0.1-0.1-0.2-0.1-0.2-0.2c-0.1-0.1-0.3-0.2-0.4-0.4c-0.1-0.1-0.1-0.1-0.1-0.2c0-0.1-0.1-0.1-0.1-0.2        c-0.1-0.1-0.1-0.2-0.2-0.3c-0.1-0.2-0.1-0.3-0.1-0.3s0,0.1,0.1,0.3c0,0.1,0.1,0.2,0.1,0.4c0.1,0.1,0.1,0.3,0.2,0.4        c0.1,0.2,0.2,0.3,0.4,0.4c0.1,0.1,0.2,0.1,0.2,0.2c0.1,0.1,0.2,0.1,0.3,0.2c0.1,0,0.2,0.1,0.3,0.1s0.2,0,0.3,0        c0.1,0,0.2,0,0.4,0s0.2,0,0.4-0.1c0.2-0.1,0.5-0.2,0.7-0.3c0.2-0.1,0.4-0.3,0.6-0.5c0.2-0.2,0.3-0.4,0.4-0.6s0.1-0.4,0.2-0.6        c0.1-0.4,0.1-0.7,0.1-1C15.4,56.7,15.4,56.6,15.4,56.6"></path>
						<path class="st20" d="M12.2,59.8c0,0-0.1,0.1-0.2,0.2c-0.1,0.1-0.1,0.2-0.2,0.2c-0.1,0.1-0.2,0.2-0.3,0.2        c-0.1,0-0.1,0.1-0.2,0.1c-0.1,0-0.1,0.1-0.2,0.1s-0.1,0-0.2,0c0,0-0.1,0-0.1,0s-0.1,0-0.1,0c0,0-0.1,0-0.1,0l-0.1,0        c-0.1,0-0.1-0.1-0.2-0.1L10,60.5l-0.1-0.1c-0.1-0.1-0.1-0.1-0.2-0.2l-0.2-0.2l-0.2-0.2c-0.1-0.1-0.2-0.3-0.3-0.4        C9,59.4,9,59.4,8.9,59.3s-0.1-0.1-0.1-0.2S8.7,59,8.7,58.9s-0.1-0.1-0.1-0.2c0-0.1,0-0.1-0.1-0.2c0-0.1,0-0.1,0-0.2        c0-0.1,0-0.2,0-0.3c0-0.2,0-0.3,0-0.3s0,0.1-0.1,0.3c0,0.1,0,0.2,0,0.3s0,0.3,0,0.4c0,0.1,0,0.2,0.1,0.2c0,0.1,0,0.2,0.1,0.2        s0.1,0.2,0.1,0.2s0.1,0.2,0.1,0.2c0.1,0.1,0.1,0.2,0.1,0.2s0.1,0.2,0.2,0.2c0.1,0.1,0.1,0.1,0.2,0.2l0.2,0.2        c0.1,0.1,0.1,0.1,0.2,0.2l0.1,0.1l0.1,0.1l0.1,0.1c0,0,0.1,0,0.1,0c0.1,0,0.1,0,0.1,0c0.1,0,0.1,0,0.1,0c0.1,0,0.1,0,0.1,0        c0.1,0,0.1,0,0.1,0c0.1,0,0.2,0,0.3-0.1c0.1,0,0.2-0.1,0.2-0.1c0.1,0,0.1-0.1,0.2-0.2c0.3-0.2,0.4-0.5,0.5-0.6        C12.1,60,12.2,59.9,12.2,59.8"></path>
						<path class="st20" d="M8.6,58.9C8.6,58.9,8.6,58.9,8.6,58.9c-0.2,0-0.2,0-0.4,0c-0.1,0-0.2,0-0.4,0c-0.1,0-0.2,0-0.2,0        s-0.2,0-0.2-0.1c-0.2-0.1-0.3-0.1-0.5-0.2c-0.1,0-0.2-0.1-0.2-0.2c0,0-0.1-0.1-0.1-0.1c0,0-0.1-0.1-0.1-0.1        c0,0-0.1-0.1-0.1-0.1c0,0-0.1-0.1-0.1-0.1c0,0-0.1-0.1-0.1-0.2c0-0.1-0.1-0.1-0.1-0.2c0-0.1-0.1-0.1-0.1-0.2l-0.1-0.2L5.8,57        l0,0v0l0,0l0,0v0l0,0l0-0.1c0-0.1-0.1-0.3-0.1-0.4s0-0.2,0-0.4c0-0.3,0-0.5,0.1-0.8c0-0.1,0.1-0.2,0.1-0.4        c0-0.1,0.1-0.2,0.1-0.3c0-0.1,0.1-0.2,0.1-0.3c0.1-0.1,0.1-0.2,0.1-0.3c0.1-0.1,0.1-0.2,0.2-0.3c0.1-0.1,0.1-0.2,0.2-0.2        c0.1-0.2,0.2-0.3,0.3-0.4c0.2-0.2,0.2-0.3,0.2-0.3S6.9,52.8,6.8,53c-0.1,0.1-0.2,0.2-0.3,0.3c-0.1,0.1-0.1,0.2-0.2,0.2        c-0.1,0.1-0.1,0.2-0.2,0.3C6.1,53.9,6,54,5.9,54.2s-0.1,0.2-0.2,0.3s-0.1,0.2-0.2,0.4c-0.1,0.1-0.1,0.3-0.1,0.4        c0,0.1-0.1,0.3-0.1,0.4c0,0.1,0,0.3,0,0.4c0,0.2,0,0.3,0,0.4c0,0.2,0.1,0.3,0.1,0.4l0,0.1v0l0,0v0l0,0v0l0.1,0.2l0.1,0.2        c0,0.1,0.1,0.1,0.1,0.2s0.1,0.1,0.1,0.2C5.9,58,5.9,58,6,58.1s0.1,0.1,0.1,0.2c0,0,0.1,0.1,0.1,0.1s0.1,0.1,0.1,0.1        c0.1,0,0.1,0.1,0.1,0.1c0.1,0.1,0.2,0.1,0.3,0.2c0.2,0.1,0.4,0.2,0.6,0.2c0.1,0,0.2,0,0.3,0c0.1,0,0.2,0,0.2,0        c0.2,0,0.3,0,0.4,0C8.5,58.9,8.6,58.9,8.6,58.9"></path>
						<path class="st20" d="M6.1,54c0,0,0-0.1-0.1-0.3c0-0.1,0-0.2-0.1-0.4c0-0.2,0-0.3,0-0.5c0-0.1,0-0.2,0-0.3c0,0,0-0.1,0-0.2        c0-0.1,0-0.1,0-0.2c0-0.1,0-0.2,0.1-0.3c0-0.1,0.1-0.2,0.1-0.3c0-0.1,0.1-0.2,0.1-0.4c0-0.1,0.1-0.2,0.2-0.4l0.1-0.2l0.1-0.2        l0.1-0.2l0,0c0,0,0,0,0,0L6.9,50c0.2-0.2,0.3-0.4,0.5-0.6s0.4-0.3,0.6-0.4c0.1,0,0.2-0.1,0.3-0.2c0.1,0,0.2-0.1,0.3-0.1        c0.1,0,0.2-0.1,0.3-0.1c0.1,0,0.2,0,0.3-0.1s0.2,0,0.2,0c0.1,0,0.1,0,0.2,0c0.1,0,0.3,0,0.4,0c0.2,0,0.3,0,0.3,0v0        c0,0-0.1,0-0.3-0.1c-0.1,0-0.2,0-0.4-0.1c-0.1,0-0.1,0-0.2,0s-0.2,0-0.3,0c-0.1,0-0.2,0-0.3,0s-0.2,0-0.3,0.1        c-0.1,0-0.2,0.1-0.3,0.1c-0.1,0-0.2,0.1-0.3,0.2c-0.2,0.1-0.4,0.3-0.6,0.5c-0.1,0-0.1,0.1-0.1,0.2l-0.1,0.2l-0.1,0.1l-0.1,0.1        l-0.1,0.2l-0.1,0.1l0,0l0,0l-0.1,0.2l-0.1,0.2l-0.1,0.2c-0.1,0.1-0.1,0.3-0.2,0.4c-0.1,0.1-0.1,0.3-0.1,0.4        c0,0.1-0.1,0.2-0.1,0.4c0,0.1-0.1,0.2-0.1,0.4c0,0.1,0,0.1,0,0.2c0,0.1,0,0.1,0,0.2c0,0.1,0,0.2,0,0.3c0,0.2,0,0.4,0.1,0.5        c0,0.2,0.1,0.3,0.1,0.4C6.1,53.9,6.1,54,6.1,54L6.1,54L6.1,54z"></path>
						<path class="st20" d="M8.4,48.5c0,0,0.1-0.1,0.1-0.3c0.1-0.2,0.3-0.4,0.5-0.6c0.1-0.1,0.2-0.2,0.3-0.4        c0.1-0.1,0.1-0.1,0.2-0.2c0.1-0.1,0.1-0.1,0.2-0.2c0.1-0.1,0.1-0.1,0.2-0.2c0.1-0.1,0.1-0.1,0.2-0.2l0.1-0.1l0.1-0.1l0.1-0.1        l0.1,0l0.1-0.1c0,0,0.1,0,0.1,0l0.1,0h0.1c0.1,0,0.2,0,0.2,0c0.1,0,0.2,0,0.2,0c0.1,0,0.3,0.1,0.4,0.2        c0.1,0.1,0.2,0.2,0.4,0.2c0.2,0.2,0.4,0.3,0.5,0.4s0.2,0.2,0.2,0.2s0,0,0-0.1c0,0-0.1-0.1-0.1-0.2c-0.1-0.1-0.2-0.3-0.4-0.5        c-0.1-0.1-0.2-0.2-0.4-0.3s-0.3-0.2-0.5-0.2c-0.1,0-0.2-0.1-0.3-0.1l-0.1,0c0,0-0.1,0-0.1,0h-0.1c-0.1,0-0.1,0-0.2,0        c-0.1,0-0.1,0-0.2,0l-0.1,0.1l-0.1,0l0,0h0v0h0v0l-0.1,0.1l-0.1,0.1l-0.1,0.1L10,46.3c0,0-0.1,0.1-0.1,0.1        c-0.1,0.1-0.2,0.1-0.2,0.2s-0.1,0.1-0.2,0.2c-0.1,0.1-0.1,0.2-0.2,0.2c-0.1,0.2-0.2,0.3-0.3,0.4c-0.2,0.3-0.3,0.5-0.4,0.7        S8.5,48.5,8.4,48.5"></path>
						<path class="st20" d="M12.4,46.2c0,0,0.1,0,0.2-0.1c0.1,0,0.4-0.1,0.6-0.2c0.1,0,0.2,0,0.4,0c0.1,0,0.3,0,0.4,0        c0.1,0,0.3,0,0.4,0.1c0.1,0,0.1,0,0.2,0.1c0.1,0,0.1,0.1,0.2,0.1c0.1,0,0.1,0.1,0.2,0.1c0.1,0.1,0.1,0.1,0.1,0.2l0.1,0.1        l0.1,0.1c0,0.1,0.1,0.1,0.1,0.2c0.1,0.1,0.1,0.3,0.1,0.4s0.1,0.3,0.1,0.4c0,0.2,0,0.5,0,0.6v0.2h0c0,0,0-0.1,0.1-0.2        c0.1-0.2,0.1-0.4,0.1-0.7c0-0.1,0-0.3,0-0.5s-0.1-0.3-0.1-0.5c0-0.1-0.1-0.2-0.1-0.2l-0.1-0.1l-0.1-0.1        c-0.1-0.1-0.1-0.1-0.2-0.2C15.1,46,15,45.9,15,45.9c-0.1,0-0.2-0.1-0.2-0.1c-0.1,0-0.2,0-0.2-0.1c-0.2,0-0.3,0-0.5,0        c-0.1,0-0.3,0-0.4,0.1c-0.1,0-0.3,0.1-0.4,0.1c-0.2,0.1-0.4,0.2-0.6,0.2C12.4,46.1,12.4,46.2,12.4,46.2L12.4,46.2L12.4,46.2z"></path>
						<path class="st20" d="M16.7,53.1C16.7,53.1,16.7,53.1,16.7,53.1c0.1-0.1,0.2-0.2,0.3-0.3s0.2-0.2,0.3-0.3        c0.1-0.1,0.2-0.3,0.3-0.5c0.1-0.2,0.1-0.4,0.2-0.7c0-0.2,0-0.5,0-0.7c0-0.1,0-0.2-0.1-0.4c0-0.1,0-0.1,0-0.2        c0-0.1,0-0.1-0.1-0.2c-0.1-0.2-0.2-0.5-0.4-0.6c-0.3-0.4-0.7-0.6-1.1-0.7s-0.9-0.1-1.2-0.1c-0.4,0-0.7,0.1-0.9,0.2        c-0.2,0.1-0.3,0.1-0.3,0.1s0.1,0,0.3-0.1c0.2,0,0.5-0.1,0.9-0.1c0.4,0,0.8,0,1.2,0.1c0.4,0.1,0.8,0.3,1.1,0.7        c0.1,0.2,0.2,0.4,0.3,0.6c0,0.1,0,0.1,0.1,0.2c0,0.1,0,0.1,0,0.2c0,0.1,0,0.2,0.1,0.3c0,0.2,0,0.5,0,0.7s-0.1,0.4-0.1,0.6        s-0.1,0.3-0.2,0.5c-0.1,0.1-0.2,0.3-0.2,0.3S16.8,53,16.7,53C16.7,53.1,16.7,53.1,16.7,53.1"></path>
						<path class="st20" d="M9.5,60.3c0,0-0.1,0-0.1,0c-0.1,0-0.2,0-0.4,0c-0.1,0-0.2,0-0.2,0c-0.1,0-0.2,0-0.3-0.1        c-0.1,0-0.2-0.1-0.3-0.1C8.1,60,8,60,8,60l-0.1-0.1c-0.1,0-0.2-0.1-0.2-0.2c-0.1-0.1-0.2-0.1-0.2-0.2        c-0.1-0.1-0.1-0.2-0.2-0.2c0,0-0.1-0.1-0.1-0.1s-0.1-0.1-0.1-0.1C7,59,7,59,6.9,58.9c0-0.1-0.1-0.1-0.1-0.2        c-0.1-0.1-0.1-0.1-0.1-0.1s0,0.1,0,0.2c0,0,0,0.1,0,0.2c0,0.1,0,0.2,0.1,0.2c0,0.1,0.1,0.2,0.1,0.3s0.1,0.2,0.2,0.3        c0.1,0.1,0.1,0.2,0.2,0.3c0.1,0.1,0.2,0.2,0.3,0.2l0.2,0.1c0.1,0,0.1,0,0.2,0.1c0.1,0,0.2,0.1,0.3,0.1c0.1,0,0.2,0,0.3,0        s0.2,0,0.3,0c0.1,0,0.2,0,0.2,0s0.1,0,0.2,0C9.4,60.4,9.5,60.3,9.5,60.3"></path>
						<path class="st20" d="M12.5,50.4c0,0,0,0-0.1-0.1c0,0-0.1-0.1-0.1-0.1c-0.1,0-0.1-0.1-0.2-0.1c0,0-0.1,0-0.1-0.1s-0.1,0-0.1,0        c-0.1,0-0.2,0-0.3-0.1c-0.1,0-0.2,0-0.3,0c-0.1,0-0.2,0-0.3,0.1c-0.1,0-0.2,0.1-0.3,0.1c-0.1,0.1-0.2,0.1-0.3,0.2        c-0.1,0.1-0.2,0.2-0.2,0.2c-0.1,0.1-0.1,0.2-0.2,0.2c0,0-0.1,0.1-0.1,0.1c0,0,0,0.1-0.1,0.1c0,0.1-0.1,0.1-0.1,0.2        c-0.1,0.1-0.1,0.2-0.1,0.2s0.1,0,0.1-0.1c0,0,0.1-0.1,0.1-0.1s0.1-0.1,0.2-0.2c0.1,0,0.1-0.1,0.2-0.2c0.1,0,0.2-0.1,0.2-0.2        c0.1,0,0.2-0.1,0.3-0.2c0.1,0,0.2-0.1,0.3-0.1s0.2-0.1,0.3-0.1c0.1,0,0.2,0,0.3,0c0.1,0,0.2,0,0.3,0c0.1,0,0.2,0,0.2,0        c0.1,0,0.1,0,0.2,0c0.1,0,0.1,0,0.1,0C12.5,50.3,12.6,50.4,12.5,50.4"></path>
						<path class="st20" d="M10.4,50.4C10.4,50.4,10.4,50.3,10.4,50.4c-0.1-0.1-0.2-0.2-0.3-0.2c-0.1,0-0.1,0-0.2-0.1        c0,0-0.1,0-0.1,0c0,0-0.1,0-0.1,0s-0.1,0-0.1,0s-0.1,0-0.1,0c0,0-0.1,0-0.1,0c0,0-0.1,0-0.1,0c-0.1,0-0.2,0.1-0.2,0.1        c-0.1,0-0.2,0.1-0.2,0.2c-0.1,0.1-0.1,0.1-0.2,0.2s-0.1,0.1-0.1,0.2c-0.1,0.1-0.1,0.1-0.1,0.2S8.3,51,8.2,51.1        c0,0.1-0.1,0.1-0.1,0.1h0c0,0,0,0,0.1-0.1c0,0,0.1-0.1,0.1-0.1c0,0,0.1-0.1,0.1-0.1s0.1-0.1,0.1-0.2s0.1-0.1,0.2-0.2        C8.9,50.5,9,50.4,9,50.4c0.1-0.1,0.1-0.1,0.2-0.1c0,0,0.1,0,0.1,0c0,0,0.1,0,0.1,0c0,0,0.1,0,0.1,0s0.1,0,0.1,0        c0.1,0,0.1,0,0.2,0c0.1,0,0.1,0,0.2,0c0.1,0,0.2,0.1,0.2,0.1C10.4,50.4,10.4,50.4,10.4,50.4L10.4,50.4L10.4,50.4z"></path>
						<path class="st20" d="M14.2,56.9c0,0,0.1,0,0.2,0c0.1,0,0.4,0,0.6-0.1c0.1,0,0.3-0.1,0.4-0.2c0.1-0.1,0.3-0.2,0.4-0.3        c0.2-0.1,0.3-0.2,0.4-0.4c0.1-0.2,0.3-0.3,0.4-0.5c0.1-0.2,0.2-0.4,0.2-0.6c0-0.2,0.1-0.4,0.1-0.6s0-0.3,0-0.5        c0-0.1,0-0.2,0-0.2c0-0.1,0-0.1,0-0.2c0-0.1-0.1-0.2-0.1-0.3c0-0.1-0.1-0.2-0.1-0.2c-0.1-0.1-0.1-0.2-0.1-0.2s0,0.1,0,0.2        c0,0.1,0,0.2,0,0.3c0,0.1,0,0.2,0,0.4c0,0.1,0,0.3,0,0.4c0,0.2,0,0.3,0,0.5c0,0.2,0,0.3-0.1,0.5c0,0.2-0.1,0.3-0.2,0.5        c-0.1,0.2-0.2,0.3-0.3,0.4s-0.2,0.2-0.4,0.3c-0.2,0.2-0.5,0.3-0.8,0.5c-0.2,0.1-0.4,0.2-0.6,0.2C14.3,56.9,14.2,57,14.2,56.9"></path>
						<path class="st20" d="M19.5,53.5c1.3,0.9,2.7,1.7,4.1,2.5c1.4,0.8,2.8,1.5,4.3,2.1s3,1.1,4.5,1.6c1.5,0.4,3.1,0.6,4.7,0.7        c-1.6,0.1-3.2-0.2-4.8-0.5c-1.6-0.4-3.1-0.9-4.6-1.5c-1.5-0.6-2.9-1.4-4.3-2.2C22.1,55.4,20.8,54.6,19.5,53.5"></path>
						<path class="st20" d="M18.2,54.7c1.3,0.6,2.6,1.3,3.9,1.9c1.3,0.6,2.6,1.2,3.9,1.7s2.6,1,4,1.5c1.4,0.4,2.7,0.8,4.1,1.1        c-1.4-0.1-2.8-0.5-4.2-0.9c-1.4-0.4-2.7-0.9-4.1-1.4c-1.3-0.5-2.6-1.2-3.9-1.8C20.6,56.1,19.3,55.5,18.2,54.7"></path>
						<path class="st20" d="M17.2,58.1c1.8,0.8,3.6,1.5,5.5,2c1.9,0.6,3.7,1.1,5.6,1.5c1.9,0.4,3.8,0.6,5.8,0.6c1,0,1.9,0,2.9-0.1        c1-0.1,1.9-0.3,2.9-0.5c-0.9,0.3-1.8,0.5-2.7,0.7c-1,0.2-2,0.2-2.9,0.2c-2,0-3.9-0.2-5.9-0.6c-1.9-0.4-3.8-0.9-5.7-1.6        C20.8,59.7,18.9,59,17.2,58.1"></path>
						<path class="st20" d="M18,56.4c0.6,0.2,1.1,0.5,1.6,0.8c0.5,0.3,1.1,0.5,1.6,0.8c0.5,0.2,1.1,0.5,1.6,0.8        c0.5,0.2,1.1,0.5,1.6,0.7c-0.6-0.1-1-0.2-1.5-0.4s-1.1-0.4-1.7-0.7c-0.5-0.3-1.1-0.5-1.6-0.9S18.5,56.8,18,56.4"></path>
						<path class="st20" d="M26.8,60.3c0.8,0.2,1.6,0.3,2.4,0.5s1.6,0.3,2.4,0.4c0.8,0.1,1.6,0.2,2.4,0.3c0.8,0.1,1.6,0.1,2.4,0        c-0.8,0.3-1.6,0.2-2.4,0.2c-0.8,0-1.6-0.1-2.5-0.2c-0.8-0.1-1.6-0.3-2.4-0.5S27.5,60.6,26.8,60.3"></path>
						<path class="st20" d="M24.9,55.8c0.1-0.2,0.3-0.5,0.5-0.7c1.2-1.4,2.2,0.7,1.1,4.7c-1.5,4.8-3.7,4.8-3.3,1.8        c0,0.3,0,0.6,0.1,0.8c0.1,0.6,0.4,1.1,0.9,0.8c0.2-0.1,0.4-0.3,0.5-0.6c1.9-2.8,2.8-9.1,0.9-7.5        C25.3,55.4,25.1,55.6,24.9,55.8"></path>
						<path class="st20" d="M32.8,58.9c0.5-1.4,1.7-1.2,2.1,0.7c0.5,2.7-1.2,5.1-2,4.1C34.9,64.8,35.2,55.9,32.8,58.9"></path>
						<path class="st21" d="M119.8,55.9v3.6h23.1v-4.2c0-1.1-0.3-3.2-3.4-3.1h-16.7C119.7,52.2,119.8,54.6,119.8,55.9"></path>
						<path class="st7" d="M119.8,55.9v3.6h23.1v-4.2c0-1.1-0.3-3.2-3.4-3.1h-16.7C119.7,52.2,119.8,54.6,119.8,55.9L119.8,55.9z"></path>
						<path class="st21" d="M54.1,55.8v3.7h23.1v-4.2c0-1.1-0.3-3.2-3.4-3.1H57.2C54.1,52.1,54.1,54.5,54.1,55.8"></path>
						<path class="st7" d="M54.1,55.8v3.7h23.1v-4.2c0-1.1-0.3-3.2-3.4-3.1H57.2C54.1,52.1,54.1,54.5,54.1,55.8L54.1,55.8z"></path>
						<path class="st14" d="M142.2,60.2c0-3.1-1.3-6-3.4-7.9h-0.1h-14.8c-2.1,2-3.4,4.8-3.4,7.9c0,6,4.9,10.9,10.9,10.9        C137.3,71.1,142.2,66.2,142.2,60.2"></path>
						<path class="st14" d="M140.2,60.2c0-3.5-2-6.5-4.9-7.9h-7.8c-2.9,1.4-4.9,4.5-4.9,7.9c0,4.9,3.9,8.8,8.8,8.8        C136.2,69.1,140.2,65.1,140.2,60.2"></path>
						<path class="st22" d="M138.5,60.2c0-4-3.2-7.2-7.2-7.2s-7.2,3.2-7.2,7.2s3.2,7.2,7.2,7.2S138.5,64.2,138.5,60.2"></path>
						<path class="st12" d="M136.4,60.2c0-2.8-2.3-5.1-5.1-5.1s-5.1,2.3-5.1,5.1s2.3,5.1,5.1,5.1S136.4,63.1,136.4,60.2"></path>
						<path class="st22" d="M135.6,60.2c0-2.4-1.9-4.3-4.3-4.3s-4.3,1.9-4.3,4.3s1.9,4.3,4.3,4.3S135.6,62.6,135.6,60.2"></path>
						<path class="st12" d="M133.1,60.2c0-1-0.8-1.7-1.7-1.7s-1.7,0.8-1.7,1.7s0.8,1.7,1.7,1.7S133.1,61.2,133.1,60.2"></path>
						<path class="st22" d="M132.6,60.2c0-0.7-0.6-1.3-1.3-1.3s-1.3,0.6-1.3,1.3s0.6,1.3,1.3,1.3S132.6,61,132.6,60.2"></path>
						<path class="st23" d="M129.7,56.1c0,0,1.7-0.7,3.5,0.1l0.1,0c0.1,0,0.1,0,0.2-0.1c0.1-0.1,0-0.2-0.1-0.3        c-2-0.8-3.8-0.1-3.9-0.1c-0.1,0-0.1,0.2-0.1,0.3C129.4,56.1,129.6,56.1,129.7,56.1"></path>
						<path class="st23" d="M133.4,64.7c0.1-0.1,0.1-0.2,0.1-0.3c0-0.1-0.1-0.1-0.2-0.1l-0.1,0c-1.9,0.8-3.5,0.1-3.5,0.1        c-0.1-0.1-0.2,0-0.3,0.1s0,0.2,0.1,0.3C129.6,64.8,131.3,65.6,133.4,64.7"></path>
						<path class="st23" d="M127.2,58.4c0-0.1-0.1-0.2-0.1-0.2c-0.1,0-0.2,0-0.3,0.1c-0.8,2-0.1,3.8-0.1,3.9        c0.1,0.1,0.2,0.2,0.3,0.1c0.1,0,0.2-0.2,0.1-0.3C127.1,62,126.4,60.3,127.2,58.4L127.2,58.4L127.2,58.4z"></path>
						<path class="st23" d="M135.7,62.3c0.1,0,0.2,0,0.3-0.1c0-0.1,0.8-1.8-0.1-3.9c-0.1-0.1-0.2-0.2-0.3-0.1        c-0.1,0-0.1,0.1-0.1,0.2l0,0.1c0.8,1.8,0.1,3.5,0.1,3.5C135.5,62.1,135.6,62.2,135.7,62.3"></path>
						<path class="st23" d="M131.5,58.1c0.3,0,0.6-0.3,0.6-0.6s-0.3-0.6-0.6-0.6s-0.6,0.3-0.6,0.6S131.2,58.1,131.5,58.1"></path>
						<path class="st23" d="M131.5,63.8c0.3,0,0.6-0.3,0.6-0.6s-0.3-0.6-0.6-0.6s-0.6,0.3-0.6,0.6S131.2,63.8,131.5,63.8"></path>
						<path class="st23" d="M134.4,60.8c0.3,0,0.6-0.3,0.6-0.6s-0.3-0.6-0.6-0.6s-0.6,0.3-0.6,0.6S134,60.8,134.4,60.8"></path>
						<path class="st23" d="M128.5,60.8c0.3,0,0.6-0.3,0.6-0.6s-0.3-0.6-0.6-0.6s-0.6,0.3-0.6,0.6S128.2,60.8,128.5,60.8"></path>
						<path class="st14" d="M76.5,60.1c0-3.1-1.3-6-3.4-7.9H73H58.2c-2.1,2-3.4,4.8-3.4,7.9c0,6,4.9,10.9,10.9,10.9        S76.5,66.1,76.5,60.1"></path>
						<path class="st14" d="M74.5,60.1c0-3.5-2-6.5-4.9-7.9h-7.8c-2.9,1.4-5,4.5-5,7.9c0,4.9,4,8.8,8.8,8.8S74.5,65,74.5,60.1"></path>
						<path class="st22" d="M72.9,60.1c0-4-3.2-7.2-7.2-7.2s-7.2,3.2-7.2,7.2s3.2,7.2,7.2,7.2S72.9,64.1,72.9,60.1"></path>
						<path class="st12" d="M70.8,60.1c0-2.8-2.3-5.1-5.1-5.1s-5.1,2.3-5.1,5.1s2.3,5.1,5.1,5.1S70.8,62.9,70.8,60.1"></path>
						<path class="st22" d="M69.9,60.1c0-2.4-1.9-4.3-4.3-4.3s-4.3,1.9-4.3,4.3s1.9,4.3,4.3,4.3C68,64.4,69.9,62.5,69.9,60.1"></path>
						<path class="st12" d="M67.4,60.1c0-1-0.8-1.7-1.7-1.7s-1.7,0.8-1.7,1.7s0.8,1.7,1.7,1.7S67.4,61,67.4,60.1"></path>
						<path class="st22" d="M67,60.1c0-0.7-0.6-1.3-1.3-1.3s-1.3,0.6-1.3,1.3s0.6,1.3,1.3,1.3S67,60.8,67,60.1"></path>
						<path class="st23" d="M64,55.9c0,0,1.7-0.7,3.5,0.1l0.1,0c0.1,0,0.2,0,0.2-0.1c0.1-0.1,0-0.2-0.1-0.3c-2-0.8-3.8-0.1-3.9-0.1        c-0.1,0-0.2,0.2-0.1,0.3C63.8,55.9,63.9,56,64,55.9"></path>
						<path class="st23" d="M67.7,64.6c0.1-0.1,0.2-0.2,0.1-0.3c0-0.1-0.1-0.1-0.2-0.1l-0.1,0C65.7,65,64,64.3,64,64.3        c-0.1-0.1-0.2,0-0.3,0.1s0,0.2,0.1,0.3C63.9,64.7,65.7,65.4,67.7,64.6"></path>
						<path class="st23" d="M61.5,58.2c0-0.1,0-0.2-0.1-0.2c-0.1,0-0.2,0-0.3,0.1c-0.8,2-0.1,3.8-0.1,3.9c0,0.1,0.2,0.2,0.3,0.1        c0.1,0,0.2-0.2,0.1-0.3C61.5,61.8,60.8,60.2,61.5,58.2L61.5,58.2L61.5,58.2z"></path>
						<path class="st23" d="M70,62.1c0.1,0,0.2,0,0.3-0.1c0-0.1,0.8-1.8-0.1-3.9C70.1,58,70,58,69.9,58c-0.1,0-0.1,0.1-0.1,0.2        l0,0.1c0.8,1.8,0.1,3.5,0.1,3.5C69.8,61.9,69.9,62.1,70,62.1"></path>
						<path class="st23" d="M65.8,57.9c0.3,0,0.6-0.3,0.6-0.6s-0.3-0.6-0.6-0.6s-0.6,0.3-0.6,0.6S65.4,57.9,65.8,57.9"></path>
						<path class="st23" d="M65.8,63.6c0.3,0,0.6-0.3,0.6-0.6s-0.3-0.6-0.6-0.6s-0.6,0.3-0.6,0.6S65.4,63.6,65.8,63.6"></path>
						<path class="st23" d="M68.6,60.7c0.3,0,0.6-0.3,0.6-0.6s-0.3-0.6-0.6-0.6S68,59.7,68,60.1S68.2,60.7,68.6,60.7"></path>
						<path class="st23" d="M62.7,60.7c0.3,0,0.6-0.3,0.6-0.6s-0.3-0.6-0.6-0.6s-0.6,0.3-0.6,0.6S62.4,60.7,62.7,60.7"></path>
						<path class="st2" d="M68.6,8.2v-1c0-0.8-0.2-2.3-2.3-2.2h-8.5c-2.1-0.1-2.1,1.7-2.1,2.7v0.6c0,0.9,0,2.3,2.1,2.2h8.5        C68.5,10.5,68.6,9,68.6,8.2"></path>
						<path class="st17" d="M68.6,8.2v-1c0-0.8-0.2-2.3-2.3-2.2h-8.5c-2.1-0.1-2.1,1.7-2.1,2.7v0.6c0,0.9,0,2.3,2.1,2.2h8.5        C68.5,10.5,68.6,9,68.6,8.2z"></path>
						<path class="st2" d="M89.9,8.2v-1c0-0.8-0.2-2.3-2.3-2.2H74.4c-2.1-0.1-2.1,1.7-2.1,2.7v0.6c0,0.9,0,2.3,2.1,2.2h13.2        C89.8,10.5,89.9,9,89.9,8.2"></path>
						<path class="st17" d="M89.9,8.2v-1c0-0.8-0.2-2.3-2.3-2.2H74.4c-2.1-0.1-2.1,1.7-2.1,2.7v0.6c0,0.9,0,2.3,2.1,2.2h13.2        C89.8,10.5,89.9,9,89.9,8.2z"></path>
						<path class="st2" d="M113.7,8.2v-1c0-0.8-0.2-2.3-2.3-2.2H95.6c-2.2-0.1-2.1,1.7-2.1,2.7v0.6c0,0.9,0,2.3,2.1,2.2h15.7        C113.5,10.5,113.7,9,113.7,8.2"></path>
						<path class="st17" d="M113.7,8.2v-1c0-0.8-0.2-2.3-2.3-2.2H95.6c-2.2-0.1-2.1,1.7-2.1,2.7v0.6c0,0.9,0,2.3,2.1,2.2h15.7        C113.5,10.5,113.7,9,113.7,8.2z"></path>
						<path class="st2" d="M137,8.1v-1c0-0.8-0.2-2.3-2.3-2.2h-15.6C117,4.8,117,6.6,117,7.5v0.6c0,0.9,0,2.3,2.1,2.2h15.6        C136.8,10.5,137,9,137,8.1"></path>
						<path class="st17" d="M137,8.1v-1c0-0.8-0.2-2.3-2.3-2.2h-15.6C117,4.8,117,6.6,117,7.5v0.6c0,0.9,0,2.3,2.1,2.2h15.6        C136.8,10.5,137,9,137,8.1z"></path>
						<path class="st24" d="M136.7,8.5v-1c0-0.7-0.2-2.3-2.3-2.2h-1.9C132.4,5.4,136.4,4.9,136.7,8.5"></path>
						<path class="st24" d="M113.4,8.5v-1c0-0.7-0.2-2.3-2.3-2.2h-1.9C109.1,5.4,113.1,4.9,113.4,8.5"></path>
						<path class="st24" d="M89.7,8.5v-1c0-0.7-0.2-2.3-2.3-2.2h-1.9C85.4,5.4,89.4,4.9,89.7,8.5"></path>
						<path class="st24" d="M68.3,8.5v-1c0-0.7-0.2-2.3-2.3-2.2H64C64,5.4,67.9,4.9,68.3,8.5"></path>
						<path class="st12" d="M56,6.9v1c0,0.7,0.2,2.3,2.3,2.3h1.9C60.2,9.9,56.3,10.4,56,6.9"></path>
					</g>
				</g>
				<g>
					<defs>
						<rect id="SVGID_00000004518908937007787130000006150295252810179237_" x="139.8" y="48.8" width="15.8" height="12.4"></rect>
					</defs>
					<clipPath id="SVGID_00000137090895235897132720000015923290368392798602_">
						<use xlink:href="#SVGID_00000004518908937007787130000006150295252810179237_" style="overflow:visible;"></use>
					</clipPath>
					<g style="clip-path:url(#SVGID_00000137090895235897132720000015923290368392798602_);">
						<path class="st21" d="M143.7,54.3v3.1h8.1v-3.1c0,0-0.1-1.6-1.7-1.6h-4.8C143.6,52.7,143.7,54.3,143.7,54.3"></path>
						<path class="st7" d="M143.7,54.3v3.1h8.1v-3.1c0,0-0.1-1.6-1.7-1.6h-4.8C143.6,52.7,143.7,54.3,143.7,54.3L143.7,54.3z"></path>
					</g>
				</g>
				<g>
					<defs>
						<rect id="SVGID_00000168827361811408319350000004671219285750986645_" y="0" width="165.3" height="74.9"></rect>
					</defs>
					<clipPath id="SVGID_00000094585958786847455120000010064418906802621600_">
						<use xlink:href="#SVGID_00000168827361811408319350000004671219285750986645_" style="overflow:visible;"></use>
					</clipPath>
					<g style="clip-path:url(#SVGID_00000094585958786847455120000010064418906802621600_);">
						<polyline class="st3" points="115.3,12.7 115.3,53.2 91.7,53.2 91.7,12.7       "></polyline>
					</g>
				</g>
			</g>
		</g>
	</g>
</g>
</svg>
