<?xml version="1.0" encoding="UTF-8"?>
<svg xmlns="http://www.w3.org/2000/svg" id="Calque_1" data-name="Calque 1" viewBox="0 0 113.39 113.39">
  <defs>
    <style>.cls-1{fill:#f6a017;}.cls-2{fill:#fcc563;}.cls-3{fill:#f08703;}.cls-4{fill:#073320;}.cls-5{fill:#082418;}.cls-6{fill:#30110c;}.cls-7{fill:#1c0907;}.cls-8{fill:#926f3d;}.cls-9{fill:#d4b283;}.cls-10{fill:#8dbaa7;}.cls-11{fill:#8f4f43;}.cls-12{fill:#e63030;}.cls-13{fill:#aa2725;}.cls-14{fill:#fbf0d8;}</style>
  </defs>
  <path class="cls-1" d="M103.91,36.1c5.1,10.67-8.44,22.45-27.7,31.65s-36.62,13-42,1.65c-5.31-11.11,8.44-22.46,27.7-31.65s36.77-12.68,42-1.65Z"></path>
  <path class="cls-2" d="M52.76,63.24c-1.35-5.38-4.76-11.66-7.38-16-1.45,1-2.81,2.12-4,3.2C47.06,54,52.76,63.24,52.76,63.24Z"></path>
  <path class="cls-2" d="M57.3,40C55.46,41,53.68,42,52,43,58.4,47.79,64.21,59.2,64.21,59.2c-1-6.31-4.28-13.82-6.91-19.16Z"></path>
  <path class="cls-2" d="M76.21,54C75.6,47.52,72.86,39.69,70.53,34c-1.88.74-3.8,1.55-5.74,2.43C71.06,41.91,76.21,54,76.21,54Z"></path>
  <path class="cls-2" d="M84,29.93c-1.49.28-3,.64-4.61,1.07,4.33,6.25,7.17,15.44,7.17,15.44,0-5.16-1.2-11.32-2.56-16.51Z"></path>
  <path class="cls-3" d="M42.45,49.55c-.38.31-.76.61-1.11.92C47.06,54,52.76,63.24,52.76,63.24a36.53,36.53,0,0,0-1.3-4c-2-2.85-5.48-7.25-9-9.68Z"></path>
  <path class="cls-3" d="M53.25,42.25,52,43C58.4,47.79,64.21,59.2,64.21,59.2c-.2-1.22-.49-2.48-.83-3.76-2-3.43-5.87-9.64-10.13-13.19Z"></path>
  <path class="cls-3" d="M66.09,35.83l-1.3.57C71.06,41.91,76.21,54,76.21,54c-.1-1.15-.28-2.35-.51-3.57C74,46.91,70.35,40,66.09,35.83Z"></path>
  <path class="cls-3" d="M80.53,30.7l-1.19.3c4.33,6.25,7.17,15.44,7.17,15.44,0-1-.05-2.14-.13-3.25A65.47,65.47,0,0,0,80.53,30.7Z"></path>
  <path class="cls-3" d="M97.85,40c-.67,7.51-9.11,16.16-23.43,23.17C62.82,68.9,49.62,74.59,41,75.46c8.13,2.82,21.16-1,35.2-7.71,19.26-9.2,32.8-21,27.7-31.65-2.27-4.76-6.83-6.81-12.81-6.88,3,2.15,7.17,6,6.75,10.82Z"></path>
  <path class="cls-4" d="M37.63,31.17c-3-2-6.33-2.45-7.07-4.45s-2.45-7.1-2.45-7.1h0l-2.37-7.2.44-.14L25.07,8.87,24.63,9l-.41-1.25-8.49,2.79.42,1.25-.44.15,1.12,3.41.44-.14,2.37,7.19s1.66,5.12,2.25,7.16-1.79,4.38-3,7.78c-1,2.69-.82,4.87.65,9.33L34.63,92.63c.56,1.68,6.19,1.33,12.58-.78S58.35,86.67,57.8,85L42.66,39.05c-1.47-4.46-2.64-6.3-5-7.88Z"></path>
  <path class="cls-5" d="M37.63,31.17c-3-2-6.33-2.45-7.07-4.45s-2.45-7.1-2.45-7.1h0l-2.37-7.2.44-.14L25.07,8.87,24.63,9l-.41-1.25L20.9,8.85l.42,1.25.44-.14,1.12,3.41-.44.14,2.37,7.2h0s1.71,5.1,2.45,7.1,4,2.46,7.07,4.45c2.39,1.58,3.56,3.42,5,7.88L54,84.48c.51,1.53-2.86,5.82-8.4,7.88.55-.16,1.1-.32,1.66-.51,6.4-2.11,11.14-5.18,10.59-6.85L42.66,39.05c-1.47-4.46-2.64-6.3-5-7.88Z"></path>
  <path class="cls-6" d="M19.64,22.41,20.47,25,29,22.18l-.87-2.56h0l-2.37-7.2.44-.14L25.07,8.87,24.63,9l-.41-1.25-8.49,2.79.42,1.25-.44.15,1.12,3.41.44-.14,2.37,7.19Z"></path>
  <path class="cls-7" d="M29,22.18l-.87-2.56h0l-2.37-7.2.44-.14L25.07,8.87,24.63,9l-.41-1.25L20.9,8.85l.42,1.25.44-.14,1.12,3.41-.44.14,2.37,7.2h0l.87,2.56L29,22.18Z"></path>
  <path class="cls-8" d="M48.66,69.23a46.79,46.79,0,0,1-7.8,3.32,46.35,46.35,0,0,1-8.25,2L25.94,54.28s-2.26-6.89,5.76-9.53S42,49,42,49l6.67,20.24Z"></path>
  <path class="cls-9" d="M40.47,71.38a48.07,48.07,0,0,1-7.17,1.78L27,54.11c-.08-.23-1.82-5.92,5-8.18s8.86,3.34,8.94,3.58l6.27,19a47.64,47.64,0,0,1-6.82,2.83Z"></path>
  <path class="cls-10" d="M38.11,92.41l-1.87-.1L21.06,46.24c-1.8-5.49-.42-8.06,1.34-11.31l.15-.29a7.79,7.79,0,0,0,.54-5.59L18.72,15.81l1.66-.55,4.36,13.25a9.55,9.55,0,0,1-.65,7l-.16.29c-1.74,3.21-2.78,5.16-1.21,9.93L38.11,92.41Z"></path>
  <polygon class="cls-11" points="23.28 24.06 20.38 15.26 18.72 15.81 21.62 24.6 23.28 24.06 23.28 24.06"></polygon>
  <polygon class="cls-11" points="16.86 11.58 18.59 11.01 19.67 14.28 17.93 14.85 16.86 11.58 16.86 11.58"></polygon>
  <polygon class="cls-11" points="18.52 9.63 16.87 10.18 17.29 11.44 18.94 10.89 18.52 9.63 18.52 9.63"></polygon>
  <path class="cls-12" d="M10,60,16,98.55a9.15,9.15,0,0,0,8.6,7.08H81.36A9.15,9.15,0,0,0,90,98.55L95.9,60Z"></path>
  <path class="cls-13" d="M92.33,60,86.91,95.2a9.14,9.14,0,0,1-8.6,7.08H21.52a8.57,8.57,0,0,1-4.76-1.53,9.23,9.23,0,0,0,7.81,4.88H81.36A9.15,9.15,0,0,0,90,98.55L95.9,60Z"></path>
  <polygon class="cls-13" points="11.21 67.63 94.72 67.63 95.89 60.03 10.03 60.03 11.21 67.63 11.21 67.63"></polygon>
  <polygon class="cls-12" points="97.54 64.92 8.39 64.92 8.39 56.68 97.54 56.68 97.54 64.92 97.54 64.92"></polygon>
  <polygon class="cls-14" points="25.55 72.55 20.91 72.55 20.4 68.5 25.55 68.5 25.55 72.55 25.55 72.55"></polygon>
  <polygon class="cls-14" points="40.86 72.55 35.36 72.55 35.36 68.5 40.86 68.5 40.86 72.55 40.86 72.55"></polygon>
  <polygon class="cls-14" points="80.88 72.55 85.52 72.55 86.02 68.5 80.88 68.5 80.88 72.55 80.88 72.55"></polygon>
  <polygon class="cls-14" points="65.57 72.55 71.07 72.55 71.07 68.5 65.57 68.5 65.57 72.55 65.57 72.55"></polygon>
  <polygon class="cls-14" points="50.21 72.55 55.72 72.55 55.72 68.5 50.21 68.5 50.21 72.55 50.21 72.55"></polygon>
  <polygon class="cls-14" points="27.61 86.08 22.97 86.08 22.46 82.02 27.61 82.02 27.61 86.08 27.61 86.08"></polygon>
  <polygon class="cls-14" points="41.89 86.08 36.39 86.08 36.39 82.02 41.89 82.02 41.89 86.08 41.89 86.08"></polygon>
  <polygon class="cls-14" points="78.81 86.08 83.45 86.08 83.96 82.02 78.81 82.02 78.81 86.08 78.81 86.08"></polygon>
  <polygon class="cls-14" points="64.53 86.08 70.04 86.08 70.04 82.02 64.53 82.02 64.53 86.08 64.53 86.08"></polygon>
  <polygon class="cls-14" points="50.21 86.08 55.72 86.08 55.72 82.02 50.21 82.02 50.21 86.08 50.21 86.08"></polygon>
  <polygon class="cls-14" points="29.67 99.05 25.03 99.05 24.52 94.99 29.67 94.99 29.67 99.05 29.67 99.05"></polygon>
  <polygon class="cls-14" points="43.39 99.05 39.01 99.05 39.01 94.99 43.39 94.99 43.39 99.05 43.39 99.05"></polygon>
  <polygon class="cls-14" points="76.75 99.05 81.39 99.05 81.9 94.99 76.75 94.99 76.75 99.05 76.75 99.05"></polygon>
  <polygon class="cls-14" points="63.06 99.05 67.39 99.05 67.39 94.99 63.06 94.99 63.06 99.05 63.06 99.05"></polygon>
  <polygon class="cls-14" points="50.83 99.05 55.1 99.05 55.1 94.99 50.83 94.99 50.83 99.05 50.83 99.05"></polygon>
  <path class="cls-13" d="M49,18.67v41a3.1,3.1,0,0,0,3.09,3.09H53.8a3.11,3.11,0,0,0,3.1-3.09v-41Z"></path>
</svg>
