<?xml version="1.0" encoding="UTF-8"?>
<svg xmlns="http://www.w3.org/2000/svg" id="Calque_1" data-name="Calque 1" viewBox="0 0 113.39 113.39">
  <defs>
    <style>.cls-1{fill:#aa2725;}.cls-2{fill:#8f4f43;}.cls-3{fill:#e63030;}.cls-4{fill:#7a1616;}</style>
  </defs>
  <circle class="cls-1" cx="56.69" cy="53.38" r="39.16"></circle>
  <circle class="cls-2" cx="56.69" cy="52.39" r="32"></circle>
  <circle class="cls-3" cx="56.69" cy="67.92" r="6.62"></circle>
  <path class="cls-4" d="M16.2,52.67a40.5,40.5,0,1,0,40.49-40.5A40.53,40.53,0,0,0,16.2,52.67Zm48,7.09a1.48,1.48,0,0,0,1.48-1.48V24.22a29.92,29.92,0,0,1,12.06,7.34V73.78a29.9,29.9,0,0,1-12.06,7.33V75.5a1.48,1.48,0,1,0-3,0v6.39a29.92,29.92,0,0,1-12.07,0V75.5a1.49,1.49,0,0,0-3,0v5.63a29.89,29.89,0,0,1-12.05-7.31V31.52a29.89,29.89,0,0,1,12.05-7.31V58.28a1.49,1.49,0,0,0,3,0V23.43a29.74,29.74,0,0,1,6-.61,30.23,30.23,0,0,1,6.06.62V58.28A1.48,1.48,0,0,0,64.23,59.76Zm-9-39.86a32.61,32.61,0,0,0-20.63,8.56l-3.34-3.34a37.35,37.35,0,0,1,24-10ZM32.7,70.39A29.76,29.76,0,0,1,32.7,35Zm1.88,6.49a32.71,32.71,0,0,0,20.63,8.56v4.72a37.34,37.34,0,0,1-24-9.94Zm23.59,8.56a32.76,32.76,0,0,0,20.64-8.56l3.34,3.34a37.37,37.37,0,0,1-24,9.94ZM80.73,35a29.76,29.76,0,0,1,0,35.33Zm-1.92-6.54A32.66,32.66,0,0,0,58.17,19.9V15.17a37.38,37.38,0,0,1,24,10ZM29.14,27.21l3.34,3.34a32.76,32.76,0,0,0-8.56,20.64H19.2A37.42,37.42,0,0,1,29.14,27.21ZM19.2,54.15h4.72a32.71,32.71,0,0,0,8.56,20.63l-3.34,3.34A37.4,37.4,0,0,1,19.2,54.15Zm65,24L80.9,74.78a32.61,32.61,0,0,0,8.56-20.63h4.73A37.35,37.35,0,0,1,84.24,78.12Zm10-26.93H89.46A32.66,32.66,0,0,0,80.9,30.55l3.34-3.34A37.38,37.38,0,0,1,94.19,51.19Z"></path>
  <path class="cls-4" d="M56.69,58.73a7.91,7.91,0,1,0,7.91,7.9A7.9,7.9,0,0,0,56.69,58.73Zm0,12.85a4.95,4.95,0,1,1,5-5A5,5,0,0,1,56.69,71.58Z"></path>
  <path class="cls-4" d="M36.32,103.52l.74-1.88a1.78,1.78,0,0,1,1.42-1H74.9a1.75,1.75,0,0,1,1.42,1l.74,1.88a5.22,5.22,0,0,0,4.76,2.82H103.9a4,4,0,0,0,3.88-5.72l-9-22.75a7.62,7.62,0,0,0-4.07-4,1.48,1.48,0,1,0-1.18,2.71,4.82,4.82,0,0,1,2.5,2.4l9,22.75a1.38,1.38,0,0,1,0,1.23,1.35,1.35,0,0,1-1.15.43H81.82a2.44,2.44,0,0,1-2-.94l-.74-1.88a4.73,4.73,0,0,0-4.18-2.84H38.48a4.72,4.72,0,0,0-4.17,2.84l-.74,1.88a2.44,2.44,0,0,1-2,.94H9.49a1.35,1.35,0,0,1-1.15-.43,1.35,1.35,0,0,1,0-1.23l9-22.75a4.7,4.7,0,0,1,2.4-2.35,1.49,1.49,0,0,0,.72-2,1.47,1.47,0,0,0-2-.72,7.7,7.7,0,0,0-3.92,4l-9,22.75a4.25,4.25,0,0,0,.29,4,4.23,4.23,0,0,0,3.6,1.73H31.56A5.21,5.21,0,0,0,36.32,103.52Z"></path>
  <path class="cls-2" d="M45.94,20.71c3.22,0,3.22-5,0-5s-3.22,5,0,5Z"></path>
</svg>
